<svg width="65" height="58" viewBox="0 0 65 58" fill="none" xmlns="http://www.w3.org/2000/svg">
<path d="M54.7302 50V52.4783C53.9073 52.4809 53.0804 52.4841 52.2575 52.4691C52.0995 52.3707 52.2229 50.3926 52.1831 50.0652L52.2484 50C53.0746 49.9974 53.904 49.9967 54.7302 50Z" fill="#FFABCF"/>
<path d="M19.9197 0.5V2.97826H24.7853C24.8572 2.97826 24.8787 3.13739 24.8866 3.20326C24.9643 3.86522 24.8807 4.8213 24.8833 5.52174C25.1994 5.52304 27.1391 5.48065 27.2384 5.55044C27.3579 5.63326 27.288 7.21935 27.2965 7.51348C27.3011 7.67848 27.3605 7.82587 27.3644 8C29.0181 8.0013 30.6744 8.00196 32.328 8C32.3306 7.31848 32.249 6.39043 32.3248 5.74674C32.3326 5.68087 32.3548 5.52174 32.426 5.52174H34.7772L34.8843 2.98739C35.685 2.96783 36.4903 2.98152 37.2916 2.97826V0.5H49.7659V2.97826H52.1498C52.1569 2.97826 52.2477 3.06891 52.2477 3.07609V5.52174H54.7295V8H57.2113V23.0652H59.6931V25.5435H62.1749C62.1769 26.39 62.1723 27.2404 62.1749 28.087C62.3147 28.0843 62.4492 28.0224 62.5968 28.0191C63.2826 28.0028 63.9716 28.0367 64.6567 28.0217V48.0435C63.8508 48.1641 62.9959 48.1061 62.1749 48.1087C62.201 41.437 62.1978 34.7587 62.1749 28.087C61.3494 28.1033 60.5186 28.0752 59.6931 28.087V47.5217H57.2113V50H59.6931V48.1087C60.5193 48.1067 61.3487 48.1113 62.1749 48.1087C62.1716 48.9187 62.1756 49.7313 62.1775 50.542C62.1645 50.585 62.0299 50.6522 62.0116 50.6522H59.6931V52.4783H57.2113V54.9239C57.2113 54.995 57.052 55.0172 56.986 55.025C56.3414 55.1007 55.412 55.0191 54.7295 55.0217V57.5H9.92719V55.0217C9.12583 55.0185 8.32121 55.0322 7.51985 55.0126C7.39315 54.9337 7.4467 52.8207 7.44539 52.4783C6.74984 52.4646 5.84725 52.5585 5.18892 52.4815C5.12295 52.4737 4.9636 52.4515 4.9636 52.3804V50.6522C4.88 50.688 4.77028 50.587 4.73501 50.587H2.57976C2.57258 50.587 2.4818 50.4963 2.4818 50.4891V48.2717C2.4818 48.2124 2.58042 48.1367 2.38644 48.0702C1.6099 48.1172 0.763479 48.1693 0 48.0435V28.0217H2.54711C2.57976 27.9976 2.4818 27.9376 2.4818 27.9239V25.6413C2.4818 25.5696 2.64116 25.548 2.70712 25.5402C3.35173 25.4646 4.2811 25.5467 4.9636 25.5435V28.087C4.13742 28.0902 3.30798 28.085 2.4818 28.087V48.1087H4.9636V50H7.44539C7.44735 50.825 7.44213 51.6533 7.44539 52.4783C7.62043 52.4815 7.76933 52.5435 7.93261 52.5461C8.59616 52.5578 9.27147 52.5696 9.92654 52.4783C9.92654 53.3254 9.92654 54.1752 9.92654 55.0217C24.8565 55.0863 39.7995 55.0843 54.7295 55.0217V52.4783C55.5341 52.4757 56.3414 52.4802 57.146 52.4783V50C56.3414 49.9974 55.5341 50.0033 54.7295 50C54.7295 45.8274 54.7295 41.6509 54.7295 37.4776H52.3124L52.2471 37.413C52.1948 37.3478 52.1896 37.3537 52.1778 37.2572C52.0942 36.5424 52.2471 35.6672 52.1818 34.9348C52.0962 34.8493 50.1179 35.002 49.7646 34.9348L49.6993 34.8696C49.5733 34.2037 49.7927 33.1654 49.6993 32.4565H47.2828V29.9783L46.6656 29.9098C38.5776 29.9659 30.4863 29.8459 22.3995 29.913V25.5435H19.9177V23.0652H22.3995V18.0435H17.3706V20.5217H14.8888V18.0435C13.2352 18.0389 11.5789 18.0493 9.92523 18.0435C9.09906 18.0402 8.26961 18.0454 7.44343 18.0435V15.5652H4.96164V18.0435H7.34547C7.35265 18.0435 7.44343 18.1341 7.44343 18.1413V23.0652C8.26961 23.0672 9.09906 23.0626 9.92523 23.0652C9.92523 23.8902 9.92458 24.7185 9.92523 25.5435C8.29378 25.5493 6.6584 25.537 5.02695 25.5435L4.92898 18.0435H2.5778C2.57062 18.0435 2.47984 17.9528 2.47984 17.9457V15.5652H0V8H2.4818C2.4831 7.67848 2.44065 5.68217 2.51053 5.58304C2.5569 5.51652 2.63724 5.52696 2.70777 5.51913C3.34716 5.44217 4.28502 5.525 4.96425 5.52239V8.00065C4.13807 8.00391 3.30863 8.00065 2.48245 8.00065C2.47265 10.4998 2.49029 13.0015 2.48245 15.5007H4.96425V8.00065C5.79043 7.99739 6.61987 8.00261 7.4467 8.00065C7.44866 7.17565 7.44343 6.34739 7.4467 5.52174C11.5822 5.51456 15.7202 5.52696 19.8557 5.52174V8C21.5309 8.0013 23.2094 7.99804 24.8846 8C24.8879 8.84717 24.8826 9.69696 24.8846 10.5441C25.7108 10.5454 26.5402 10.5409 27.367 10.5441C27.3703 11.3691 27.3651 12.1974 27.367 13.0224H29.8488V20.5224C30.675 20.5243 31.5045 20.5198 32.3306 20.5224C32.3333 21.3696 32.3287 22.2193 32.3306 23.0665C33.1568 23.0678 33.9863 23.0633 34.8131 23.0665C34.8151 23.8915 34.8118 24.7198 34.8131 25.5448H42.3238V23.0665H44.7403C44.7416 22.22 44.7383 21.3696 44.7403 20.523C45.5665 20.5204 46.3959 20.525 47.2221 20.523V18.0448H44.7403C44.739 18.8698 44.7422 19.698 44.7403 20.523C43.9141 20.5257 43.0847 20.5211 42.2585 20.523V23.0665C39.778 23.06 37.2936 23.0757 34.8131 23.0665C34.8111 22.2193 34.8144 21.3696 34.8131 20.5224C33.9869 20.5211 33.1575 20.5257 32.3306 20.5224C32.3189 17.1976 32.3248 13.8689 32.3306 10.5441C33.1568 10.5409 33.9863 10.5461 34.8131 10.5441C34.8137 9.69696 34.8111 8.84717 34.8131 8C35.6393 7.99674 36.4687 8.00196 37.2955 8C37.2975 7.175 37.2923 6.34674 37.2955 5.52109C41.4304 5.50609 45.5697 5.53217 49.7045 5.52109V3.04283C49.4936 3.05 49.2983 2.98609 49.0873 2.97435C45.3157 2.76891 41.111 2.9613 37.2955 2.97761C37.2955 3.82413 37.2988 4.67456 37.2955 5.52109C36.4694 5.52435 35.6399 5.51913 34.8131 5.52109C34.8131 6.34609 34.8151 7.17435 34.8131 8C33.9869 8.00326 33.1575 7.99935 32.3313 8C32.3274 8.84652 32.3326 9.69696 32.3313 10.5435C30.6783 10.5493 29.0207 10.5493 27.3677 10.5435C27.3644 9.69761 27.3866 8.84522 27.3677 8C26.5415 7.99935 25.7121 8.00065 24.8859 8C24.8833 7.175 24.8892 6.34674 24.8859 5.52174C23.2322 5.51456 21.576 5.52696 19.9223 5.52174V3.07609C19.9223 3.02196 19.7643 2.96065 19.697 2.975C15.6144 2.99391 11.5299 2.96065 7.44801 2.97826C7.44801 3.82478 7.45127 4.67522 7.44801 5.52174C6.64338 5.52304 5.83614 5.51848 5.03152 5.52174C4.94008 5.21391 4.91331 3.06696 5.04066 2.98739C5.84137 2.96783 6.64665 2.98152 7.44801 2.97826V0.5H19.9223H19.9197ZM52.1831 5.52174H49.7666V8H52.1831V5.52174ZM54.6649 8H52.2484V23.0652H54.6649V8ZM57.1467 23.0652H54.7302V25.5435H57.1467V23.0652ZM59.6285 25.5435H57.212V28.0217H59.6938L59.6285 25.5435Z" fill="#FFABCF"/>
<path d="M9.92719 28.087C9.93046 28.912 9.92523 29.7402 9.92719 30.5652H14.8908V28.087H17.3726C17.3739 28.7163 17.3706 29.3489 17.3726 29.9783C17.3745 30.8033 17.3706 31.6315 17.3726 32.4565H14.8908V34.9348H12.409V37.413H9.92719V49.9348H7.44539V47.4565H4.9636V28.087C6.61726 28.0811 8.27353 28.0915 9.92719 28.087Z" fill="#FFABCF"/>
<path d="M4.9636 28.087V47.4565H7.44539V49.9348H9.92719V37.413H12.409V34.9348H14.8908V32.4565H17.3726C17.3706 31.6315 17.3745 30.8033 17.3726 29.9783C19.0498 30.0141 20.7256 29.9267 22.4015 29.913C30.4882 29.8459 38.5796 29.9659 46.6676 29.9098L47.2848 29.9783V32.4565H49.7013C49.7947 33.1654 49.5752 34.2037 49.7013 34.8696C49.7104 34.9185 49.7176 34.9257 49.7666 34.9348C50.1193 35.0013 52.0982 34.8493 52.1837 34.9348C52.249 35.6678 52.0962 36.5424 52.1798 37.2572C52.1909 37.3537 52.1968 37.3485 52.249 37.413C52.2673 37.4359 52.281 37.4711 52.3143 37.4783H54.7315C54.7315 41.6509 54.7315 45.8274 54.7315 50C53.9053 49.9967 53.0759 49.9974 52.2497 50V37.4783H49.7679L49.7026 34.9348H47.2208V32.4565H17.4392V34.9022C17.4392 34.9093 17.3484 35 17.3412 35H14.9574V37.4783H12.4103C12.3992 41.6509 12.4253 45.8274 12.4103 50C11.6057 50.0013 10.7984 49.9993 9.99381 50V52.4783H12.4103C12.4123 51.6533 12.407 50.825 12.4103 50C13.2365 49.9987 14.0659 50.0007 14.8921 50V52.4783H49.7026V50C50.5288 49.9974 51.3582 50.0033 52.1844 50V50.0652C52.2249 50.3926 52.1008 52.3707 52.2588 52.4691C53.0817 52.4841 53.9086 52.4809 54.7315 52.4783V55.0217C39.8015 55.0843 24.8585 55.0863 9.9285 55.0217C9.9285 54.1746 9.9285 53.3248 9.9285 52.4783C9.27343 52.5696 8.59812 52.5578 7.93457 52.5461C7.77129 52.5435 7.62239 52.4815 7.44735 52.4783C7.44409 51.6533 7.44931 50.825 7.44735 50H4.96556V48.1087H2.48376V28.087C3.30993 28.085 4.13938 28.0902 4.96556 28.087H4.9636Z" fill="#7F1E65"/>
<path d="M9.92719 23.0652C9.10101 23.0626 8.27157 23.0672 7.44539 23.0652V18.1413C7.44539 18.1341 7.35461 18.0435 7.34743 18.0435H4.9636V15.5652H7.44539V18.0435C8.27157 18.0454 9.10101 18.0402 9.92719 18.0435V23.0652C10.7534 23.0678 11.5828 23.0633 12.409 23.0652V25.5435C11.5828 25.5454 10.7534 25.5402 9.92719 25.5435C9.92785 26.39 9.92393 27.2404 9.92719 28.087C8.27353 28.0915 6.61726 28.0811 4.9636 28.087V25.5435C4.98515 25.5435 5.00735 25.5435 5.02891 25.5435C6.66036 25.537 8.29574 25.5493 9.92719 25.5435C9.92654 24.7185 9.92719 23.8902 9.92719 23.0652Z" fill="#7F1E65"/>
<path d="M54.7302 50C55.5348 50.0033 56.342 49.9974 57.1467 50V52.4783C56.342 52.4802 55.5348 52.4757 54.7302 52.4783V50Z" fill="#7F1E65"/>
<path d="M9.92719 18.0435C11.5809 18.0493 13.2371 18.0389 14.8908 18.0435V20.5217H17.3726V18.0435H22.4015V23.0652H19.9197V25.5435H22.4015V29.913C20.7256 29.9267 19.0498 30.0141 17.3726 29.9783C17.3706 29.3489 17.3739 28.7163 17.3726 28.087H14.8908V30.5652H9.92719C9.92523 29.7402 9.93046 28.912 9.92719 28.087C9.92393 27.262 9.92785 26.39 9.92719 25.5435C10.7534 25.5402 11.5828 25.5454 12.409 25.5435V23.0652C11.5828 23.0633 10.7534 23.0678 9.92719 23.0652V18.0435ZM17.4379 23.0652H14.8908V25.5435H17.4379V23.0652Z" fill="#FFFCFF"/>
<path d="M62.1756 28.087C62.1984 34.7587 62.2017 41.437 62.1756 48.1087C61.3494 48.1113 60.5199 48.1067 59.6938 48.1087V50H57.212V47.5217H59.6938V28.087C60.5193 28.0752 61.35 28.1033 62.1756 28.087Z" fill="#7F1E65"/>
<path d="M37.2923 2.97826C41.1071 2.96196 45.3124 2.76957 49.0841 2.975C49.2957 2.98674 49.4903 3.05 49.7013 3.04348V5.52174C45.5665 5.53283 41.4271 5.50674 37.2923 5.52174C37.289 6.34674 37.2942 7.175 37.2923 8.00065C36.4661 8.00261 35.6367 7.99739 34.8098 8.00065C34.8079 8.84783 34.8111 9.69761 34.8098 10.5448C33.9837 10.5461 33.1542 10.5415 32.3274 10.5448C32.3215 13.8696 32.3156 17.1983 32.3274 20.523C33.1536 20.5257 33.983 20.5211 34.8098 20.523C34.8105 21.3702 34.8079 22.22 34.8098 23.0672C37.2903 23.0763 39.7747 23.0607 42.2552 23.0672V20.5237C43.0814 20.5217 43.9108 20.5263 44.737 20.5237C44.739 19.6987 44.7357 18.8704 44.737 18.0454H47.2188V20.5237C46.3926 20.5257 45.5632 20.5211 44.737 20.5237C44.7351 21.3702 44.7383 22.2207 44.737 23.0672H42.3205V25.5454H34.8098C34.8085 24.7204 34.8118 23.8922 34.8098 23.0672C33.9837 23.0639 33.1542 23.0691 32.3274 23.0672C32.3261 22.22 32.3306 21.3702 32.3274 20.523C31.5012 20.5204 30.6718 20.525 29.8456 20.523V13.023H27.3638C27.3618 12.198 27.367 11.3698 27.3638 10.5448C26.5376 10.5415 25.7082 10.5467 24.8813 10.5448C24.88 9.69761 24.8846 8.84783 24.8813 8.00065C25.7075 8.0013 26.537 8 27.3631 8.00065C27.3821 8.84587 27.3599 9.69826 27.3631 10.5441C29.0161 10.55 30.6737 10.55 32.3267 10.5441C32.328 9.69761 32.3228 8.84717 32.3267 8.00065C33.1529 8 33.9823 8.00391 34.8085 8.00065C34.8105 7.17565 34.8079 6.34739 34.8085 5.52174C35.6347 5.52043 36.4641 5.525 37.291 5.52174C37.2942 4.67522 37.291 3.82478 37.291 2.97826H37.2923Z" fill="#7F1E65"/>
<path d="M7.44539 5.52174C7.44213 6.34674 7.44735 7.175 7.44539 8.00065C6.61922 8.00261 5.78977 7.99739 4.96294 8.00065V15.5007H2.48114C2.48898 13.0015 2.47135 10.4998 2.48114 8.00065C3.30732 8.00065 4.13677 8.00391 4.96294 8.00065V5.52239C4.9845 5.52239 5.0067 5.52239 5.02825 5.52239C5.83288 5.51913 6.64012 5.5237 7.44474 5.52239L7.44539 5.52174Z" fill="#7F1E65"/>
<path d="M7.44539 2.97826C11.5273 2.96065 15.6118 2.99391 19.6944 2.975C19.761 2.96065 19.9197 3.02196 19.9197 3.07609V5.52174C21.5734 5.52696 23.2296 5.51456 24.8833 5.52174C24.8866 6.34674 24.8807 7.175 24.8833 8C23.2081 7.99804 21.5296 8.0013 19.8544 8V5.52174C15.7189 5.52696 11.5809 5.51456 7.44539 5.52174C7.44866 4.67522 7.44539 3.82478 7.44539 2.97826Z" fill="#7F1E65"/>
<path d="M54.6649 8H52.2484V23.0652H54.6649V8Z" fill="#7F1E65"/>
<path d="M59.6285 25.5435L59.6938 28.0217H57.212V25.5435H59.6285Z" fill="#7F1E65"/>
<path d="M57.1467 23.0652H54.7302V25.5435H57.1467V23.0652Z" fill="#7F1E65"/>
<path d="M52.1831 5.52174H49.7666V8H52.1831V5.52174Z" fill="#7F1E65"/>
<path d="M49.7013 34.8696C49.7104 34.9185 49.7176 34.9257 49.7666 34.9348L49.7013 34.8696Z" fill="#7F1E65"/>
<path d="M52.3137 37.4783C52.2804 37.4711 52.2667 37.4359 52.2484 37.413L52.3137 37.4783Z" fill="#7F1E65"/>
<path d="M12.409 50C12.424 45.8274 12.3979 41.6509 12.409 37.4783H14.9561V35H17.3399C17.3471 35 17.4379 34.9093 17.4379 34.9022V32.4565H47.2195V34.9348H49.7013L49.7666 37.4783H52.2484V50C52.2268 50 52.2046 50 52.1831 50C51.3569 50.0033 50.5274 49.9974 49.7013 50V52.4783H14.8908V50C14.0646 50.0007 13.2352 49.9987 12.409 50ZM22.4015 39.9565H17.3726V47.4565H22.4015V39.9565ZM47.2195 39.9565H42.2559V47.4565H47.2195V39.9565ZM34.8105 44.9783H29.8469V47.4565H34.8105V44.9783Z" fill="#FFFCFF"/>
<path d="M12.409 50C12.4057 50.825 12.4109 51.6533 12.409 52.4783H9.9925V50C10.7971 49.9993 11.6044 50.0013 12.409 50Z" fill="#FFABCF"/>
<path d="M52.1831 50.0652V50C52.2046 50 52.2268 50 52.2484 50L52.1831 50.0652Z" fill="#7F1E65"/>
<path d="M17.4379 23.0652H14.8908V25.5435H17.4379V23.0652Z" fill="#FFC664"/>
<path d="M22.4015 39.9565H17.3726V47.4565H22.4015V39.9565Z" fill="black"/>
<path d="M47.2195 39.9565H42.2559V47.4565H47.2195V39.9565Z" fill="black"/>
<path d="M34.8105 44.9783H29.8469V47.4565H34.8105V44.9783Z" fill="#FFC664"/>
</svg>
